<?xml version="1.0" standalone="no"?>
<!DOCTYPE svg PUBLIC "-//W3C//DTD SVG 20010904//EN"
 "http://www.w3.org/TR/2001/REC-SVG-20010904/DTD/svg10.dtd">
<svg version="1.0" xmlns="http://www.w3.org/2000/svg"
 width="300.000000pt" height="300.000000pt" viewBox="0 0 300.000000 300.000000"
 preserveAspectRatio="xMidYMid meet">
<metadata>
Created by potrace 1.10, written by Peter Selinger 2001-2011
</metadata>
<g transform="translate(0.000000,300.000000) scale(0.100000,-0.100000)"
fill="#000000" stroke="none">
<path d="M2166 2989 c2 -4 31 -24 63 -44 44 -26 65 -47 80 -78 21 -43 21 -47
21 -1367 0 -1321 0 -1324 -21 -1367 -15 -32 -36 -52 -82 -80 l-61 -38 33 -3
c52 -5 114 38 145 100 l26 52 0 1336 0 1336 -26 52 c-29 59 -75 92 -140 102
-24 4 -41 3 -38 -1z"/>
<path d="M723 2965 c-29 -18 -49 -41 -67 -77 l-26 -52 0 -1336 0 -1336 26 -52
c31 -62 93 -105 145 -100 l33 3 -63 39 c-111 68 -101 -80 -101 1445 l0 1325
21 43 c16 33 35 52 75 75 30 16 57 34 60 39 12 19 -63 8 -103 -16z"/>
<path d="M1280 2893 c-55 -21 -67 -78 -24 -112 25 -20 39 -21 244 -21 205 0
219 1 244 21 31 24 34 57 7 90 -19 24 -21 24 -238 26 -120 1 -225 -1 -233 -4z
m444 -39 c21 -8 21 -40 0 -48 -9 -3 -109 -6 -224 -6 -115 0 -215 3 -224 6 -19
7 -21 40 -3 47 18 8 432 8 451 1z"/>
<path d="M756 2699 l-26 -20 0 -1149 c0 -1115 1 -1148 19 -1171 l19 -24 326
-5 325 -5 -29 -44 c-40 -58 -40 -105 -1 -159 54 -73 142 -80 206 -17 55 56 59
125 10 183 -14 17 -25 33 -25 36 0 3 144 6 320 6 l321 0 24 25 25 24 0 1149 0
1149 -23 21 -23 22 -721 0 c-714 0 -721 0 -747 -21z m1474 -1174 l0 -1155
-730 0 -730 0 0 1155 0 1155 730 0 730 0 0 -1155z m-659 -1254 c71 -72 2 -191
-97 -167 -42 11 -74 53 -74 98 0 89 107 132 171 69z"/>
</g>
</svg>
