<?xml version="1.0" standalone="no"?>
<!DOCTYPE svg PUBLIC "-//W3C//DTD SVG 20010904//EN"
 "http://www.w3.org/TR/2001/REC-SVG-20010904/DTD/svg10.dtd">
<svg version="1.0" xmlns="http://www.w3.org/2000/svg"
 width="300.000000pt" height="300.000000pt" viewBox="0 0 300.000000 300.000000"
 preserveAspectRatio="xMidYMid meet">
<metadata>
Created by potrace 1.10, written by Peter Selinger 2001-2011
</metadata>
<g transform="translate(0.000000,300.000000) scale(0.100000,-0.100000)"
fill="#000000" stroke="none">
<path d="M1245 2371 c-308 -56 -564 -176 -818 -381 -164 -132 -397 -388 -416
-457 -14 -49 2 -90 64 -168 252 -316 589 -562 923 -674 186 -62 276 -75 502
-75 226 0 316 13 502 75 332 111 666 353 913 662 72 90 88 130 74 180 -11 41
-94 145 -213 268 -293 302 -601 481 -963 560 -142 30 -429 36 -568 10z m530
-44 c346 -67 662 -242 940 -521 119 -120 255 -283 255 -306 0 -23 -135 -186
-249 -301 -64 -63 -159 -148 -211 -188 -627 -482 -1401 -481 -2026 4 -158 123
-454 439 -454 485 0 25 135 187 259 310 297 296 650 480 1012 529 95 13 383 5
474 -12z"/>
<path d="M1332 2150 c-118 -31 -206 -83 -303 -180 -70 -69 -94 -102 -127 -170
-50 -104 -72 -191 -72 -292 0 -107 24 -208 72 -308 53 -110 176 -236 285 -293
310 -161 676 -65 873 229 121 182 143 431 55 631 -84 188 -267 341 -465 387
-89 21 -228 19 -318 -4z m320 -39 c413 -106 605 -574 386 -938 -42 -71 -140
-169 -211 -211 -135 -82 -310 -111 -459 -78 -488 109 -665 707 -313 1060 160
159 383 222 597 167z"/>
<path d="M1405 1825 c-121 -45 -195 -121 -229 -235 -21 -71 -20 -115 5 -196
18 -57 31 -77 83 -130 53 -52 73 -65 130 -83 82 -25 125 -26 196 -5 61 18 91
35 139 78 104 96 139 253 83 379 -28 64 -104 142 -169 173 -67 33 -176 42
-238 19z m169 -40 c110 -29 191 -110 216 -216 16 -65 9 -122 -22 -190 -60
-131 -201 -200 -338 -165 -107 28 -177 93 -213 200 -21 62 -21 98 -1 167 31
106 112 182 221 208 56 13 73 13 137 -4z"/>
</g>
</svg>
