<?xml version="1.0" standalone="no"?>
<!DOCTYPE svg PUBLIC "-//W3C//DTD SVG 20010904//EN"
 "http://www.w3.org/TR/2001/REC-SVG-20010904/DTD/svg10.dtd">
<svg version="1.0" xmlns="http://www.w3.org/2000/svg"
 width="300.000000pt" height="300.000000pt" viewBox="0 0 300.000000 300.000000"
 preserveAspectRatio="xMidYMid meet">
<metadata>
Created by potrace 1.10, written by Peter Selinger 2001-2011
</metadata>
<g transform="translate(0.000000,300.000000) scale(0.100000,-0.100000)"
fill="#000000" stroke="none">
<path d="M1430 2831 c-47 -24 -80 -83 -80 -142 0 -46 0 -46 -40 -53 -82 -13
-198 -57 -275 -105 -141 -87 -274 -241 -325 -379 -52 -137 -53 -147 -60 -557
-6 -296 -11 -406 -23 -455 -41 -170 -99 -263 -203 -320 -69 -37 -91 -98 -59
-160 33 -63 -30 -60 1135 -60 1165 0 1102 -3 1135 60 32 62 10 123 -59 160
-104 57 -162 150 -203 320 -12 49 -17 159 -23 455 -7 410 -8 420 -60 557 -49
132 -174 281 -307 369 -77 50 -208 103 -286 114 l-47 7 0 47 c0 88 -68 161
-150 161 -19 0 -51 -8 -70 -19z m131 -42 c22 -11 49 -70 49 -107 0 -50 27 -71
125 -98 228 -64 397 -200 494 -398 71 -145 73 -156 81 -596 8 -437 16 -493 81
-622 35 -70 116 -160 159 -178 39 -16 64 -70 49 -103 -6 -14 -22 -30 -36 -36
-17 -8 -323 -11 -1064 -11 -1134 0 -1089 -2 -1103 56 -9 33 12 66 62 98 103
65 175 187 213 361 6 28 14 226 19 440 8 433 10 446 80 590 96 198 265 335
495 399 99 27 125 48 125 100 0 94 87 148 171 105z"/>
<path d="M1125 413 c47 -111 108 -177 214 -227 60 -28 75 -31 161 -31 86 0
101 3 161 31 106 50 167 116 214 227 l15 37 -390 0 -390 0 15 -37z m690 -13
c19 -30 -86 -138 -174 -178 -81 -38 -202 -38 -283 0 -84 39 -178 133 -178 178
0 14 626 14 635 0z"/>
</g>
</svg>
