<?xml version="1.0" standalone="no"?>
<!DOCTYPE svg PUBLIC "-//W3C//DTD SVG 20010904//EN"
 "http://www.w3.org/TR/2001/REC-SVG-20010904/DTD/svg10.dtd">
<svg version="1.0" xmlns="http://www.w3.org/2000/svg"
 width="300.000000pt" height="300.000000pt" viewBox="0 0 300.000000 300.000000"
 preserveAspectRatio="xMidYMid meet">
<metadata>
Created by potrace 1.10, written by Peter Selinger 2001-2011
</metadata>
<g transform="translate(0.000000,300.000000) scale(0.100000,-0.100000)"
fill="#000000" stroke="none">
<path d="M942 2993 c-29 -6 -55 -46 -55 -85 0 -25 29 -59 204 -234 l204 -204
-545 0 -545 0 -50 -24 c-87 -40 -154 -138 -143 -206 4 -22 8 -17 31 31 33 68
101 133 153 148 26 7 220 11 557 11 504 0 518 1 537 20 11 11 20 28 20 37 0 9
-85 103 -190 208 -116 117 -190 199 -190 211 0 24 27 64 42 64 7 0 123 -110
258 -245 182 -181 252 -245 270 -245 17 0 88 64 270 245 136 135 252 245 258
245 15 0 42 -41 42 -64 0 -12 -74 -94 -190 -211 -104 -105 -190 -199 -190
-208 0 -9 9 -26 20 -37 19 -19 33 -20 538 -20 333 0 531 -4 555 -11 53 -14
113 -72 150 -143 27 -52 32 -58 35 -36 11 69 -56 166 -143 206 l-50 24 -545 0
-545 0 200 199 c110 110 203 211 206 225 16 57 -48 117 -106 100 -11 -3 -129
-115 -262 -247 l-243 -242 -242 242 c-242 241 -262 257 -316 246z"/>
<path d="M235 2332 c-31 -10 -60 -34 -80 -65 -17 -27 -18 -76 -19 -940 -1
-860 0 -914 17 -945 10 -18 32 -42 50 -52 31 -19 60 -20 1295 -20 1412 0 1298
-6 1345 70 l22 35 0 910 0 910 -22 35 c-44 70 65 65 -1328 67 -693 0 -1269 -2
-1280 -5z m2538 -44 c48 -25 46 10 47 -960 0 -504 -3 -924 -6 -933 -18 -46 18
-45 -1314 -45 -1332 0 -1296 -1 -1314 45 -3 9 -6 429 -6 933 1 965 -1 934 45
960 29 17 2517 17 2548 0z"/>
<path d="M379 2091 l-29 -29 0 -735 0 -735 26 -31 26 -31 918 0 919 0 28 24
28 24 0 747 0 747 -28 24 -28 24 -915 0 -916 0 -29 -29z m1854 -23 c16 -12 17
-71 17 -743 1 -681 0 -730 -16 -742 -14 -10 -207 -13 -915 -13 l-898 0 -15 22
c-14 20 -16 106 -16 735 0 700 0 713 20 733 20 20 33 20 913 20 699 0 897 -3
910 -12z"/>
<path d="M535 1981 c-50 -21 -48 -1 -48 -658 l0 -616 27 -24 27 -23 785 0 785
0 24 25 25 24 0 614 c0 590 -1 616 -19 638 l-19 24 -784 2 c-430 1 -792 -2
-803 -6z m1585 -656 l0 -625 -795 0 -795 0 0 625 0 625 795 0 795 0 0 -625z"/>
<path d="M2523 1934 c-82 -41 -53 -164 39 -164 35 0 88 48 88 80 0 37 -28 77
-61 89 -18 6 -32 11 -33 11 -1 0 -15 -7 -33 -16z m65 -46 c34 -34 -6 -90 -48
-68 -35 19 -20 80 20 80 9 0 21 -5 28 -12z"/>
<path d="M2495 1558 c-71 -84 48 -186 126 -109 31 31 36 59 17 94 -17 34 -39
46 -80 47 -29 0 -42 -7 -63 -32z m93 -20 c34 -34 -6 -90 -48 -68 -35 19 -20
80 20 80 9 0 21 -5 28 -12z"/>
<path d="M2503 1216 l-28 -24 -3 -206 c-3 -228 2 -253 58 -276 24 -10 36 -10
60 0 55 23 60 47 60 270 l0 202 -29 29 c-37 36 -79 38 -118 5z m83 -30 c17
-13 19 -30 22 -201 3 -157 1 -190 -13 -211 -20 -31 -50 -31 -70 0 -14 21 -16
54 -13 211 3 171 5 188 22 201 11 8 23 14 26 14 3 0 15 -6 26 -14z"/>
<path d="M11 400 c-1 -79 83 -183 167 -208 23 -7 105 -12 196 -12 l156 0 0
-62 c1 -70 13 -93 57 -108 34 -12 78 0 99 28 8 10 14 44 14 80 l0 62 800 0
800 0 0 -62 c1 -70 13 -93 57 -108 34 -12 78 0 99 28 8 10 14 44 14 80 l0 62
156 0 c92 0 173 5 196 12 87 26 175 139 166 214 -3 27 -6 23 -42 -43 -66 -124
-108 -143 -313 -143 l-145 0 -29 -29 c-23 -24 -29 -38 -29 -73 0 -46 -22 -88
-45 -88 -23 0 -45 42 -45 88 0 35 -6 49 -29 73 l-29 29 -782 0 -782 0 -29 -29
c-23 -24 -29 -38 -29 -73 0 -46 -22 -88 -45 -88 -23 0 -45 42 -45 88 0 35 -6
49 -29 73 l-29 29 -149 0 c-141 0 -152 1 -202 26 -53 27 -65 41 -128 151 l-22
38 0 -35z"/>
</g>
</svg>
