<?xml version="1.0" standalone="no"?>
<!DOCTYPE svg PUBLIC "-//W3C//DTD SVG 20010904//EN"
 "http://www.w3.org/TR/2001/REC-SVG-20010904/DTD/svg10.dtd">
<svg version="1.0" xmlns="http://www.w3.org/2000/svg"
 width="300.000000pt" height="300.000000pt" viewBox="0 0 300.000000 300.000000"
 preserveAspectRatio="xMidYMid meet">
<metadata>
Created by potrace 1.10, written by Peter Selinger 2001-2011
</metadata>
<g transform="translate(0.000000,300.000000) scale(0.100000,-0.100000)"
fill="#000000" stroke="none">
<path d="M1359 2971 c-136 -53 -265 -184 -367 -372 -24 -44 -102 -216 -102
-225 0 -4 95 -23 196 -38 110 -16 197 -25 292 -28 l63 -2 2 342 c2 389 10 360
-84 323z m41 -326 c0 -252 -2 -286 -16 -292 -36 -14 -404 33 -425 54 -13 13
51 153 116 254 85 132 239 269 302 269 l23 0 0 -285z"/>
<path d="M1557 2649 l2 -343 63 2 c95 3 182 12 292 28 101 15 196 34 196 38 0
9 -78 181 -103 226 -111 206 -282 364 -417 386 l-35 6 2 -343z m236 172 c78
-74 161 -193 212 -305 38 -83 43 -111 21 -119 -32 -13 -244 -38 -329 -40 l-92
-2 -3 284 c-2 217 1 286 10 292 20 13 107 -40 181 -110z"/>
<path d="M1020 2919 c-188 -65 -383 -179 -520 -304 -41 -38 -76 -71 -78 -75
-6 -14 353 -152 361 -139 2 2 20 47 41 99 60 151 149 291 260 408 22 23 36 42
31 41 -6 0 -48 -13 -95 -30z m-50 -75 c0 -4 -15 -27 -34 -53 -45 -62 -112
-182 -143 -256 -37 -89 -37 -89 -118 -62 -92 32 -175 68 -175 76 0 12 23 36
80 83 126 105 390 248 390 212z"/>
<path d="M1943 2877 c108 -124 181 -243 238 -387 18 -47 34 -87 36 -89 8 -13
367 125 361 139 -2 4 -37 37 -78 75 -138 126 -347 247 -534 309 -43 14 -80 26
-83 26 -2 0 25 -33 60 -73z m192 -66 c133 -62 365 -225 365 -256 0 -19 -231
-111 -250 -100 -5 3 -33 57 -64 120 -30 63 -78 148 -105 188 -28 40 -51 76
-51 80 0 14 23 6 105 -32z"/>
<path d="M284 2373 c-166 -234 -256 -484 -277 -770 l-4 -53 318 0 c297 0 319
1 319 18 0 152 41 450 85 627 14 55 25 101 25 102 0 2 -6 3 -14 3 -29 0 -218
70 -305 112 l-89 44 -58 -83z m181 -21 c50 -21 120 -49 158 -62 77 -26 76 -21
48 -148 -30 -133 -50 -266 -60 -407 -7 -85 -14 -131 -23 -136 -7 -5 -131 -9
-276 -9 -216 0 -264 2 -268 14 -9 24 36 247 72 354 57 171 215 452 247 439 7
-3 53 -23 102 -45z"/>
<path d="M2567 2411 c-86 -42 -274 -111 -303 -111 -8 0 -14 -1 -14 -3 0 -1 11
-47 25 -102 44 -177 85 -475 85 -627 0 -17 22 -18 319 -18 l318 0 -4 53 c-22
304 -123 573 -307 812 l-31 40 -88 -44z m134 -83 c65 -93 160 -288 193 -398
38 -127 70 -322 54 -332 -17 -10 -519 -10 -537 1 -9 6 -16 46 -22 127 -10 138
-33 294 -60 412 -30 131 -33 125 70 160 49 18 122 47 162 66 41 19 77 35 81
35 4 1 31 -32 59 -71z"/>
<path d="M855 2256 c-46 -136 -87 -384 -101 -600 l-7 -106 349 0 349 0 0 325
0 325 -70 0 c-91 0 -305 24 -423 48 -65 13 -95 15 -97 8z m214 -70 c52 -8 138
-18 190 -21 53 -3 106 -8 119 -11 l22 -4 0 -274 c0 -241 -2 -275 -16 -280 -9
-3 -141 -6 -294 -6 -232 0 -280 2 -290 15 -21 26 30 421 76 584 8 26 3 26 193
-3z"/>
<path d="M2050 2249 c-108 -23 -339 -49 -427 -49 l-68 0 0 -325 0 -325 349 0
349 0 -7 106 c-8 126 -30 299 -51 404 -20 94 -46 193 -54 201 -3 3 -44 -3 -91
-12z m69 -56 c18 -35 61 -261 75 -403 19 -175 19 -178 -3 -189 -21 -12 -546
-16 -575 -5 -14 5 -16 39 -16 280 l0 274 23 4 c12 3 65 8 117 11 99 6 290 32
299 40 12 13 71 4 80 -12z"/>
<path d="M317 1442 l-317 -2 4 -23 c3 -12 7 -56 11 -98 17 -222 121 -490 272
-700 l55 -77 101 48 c56 26 147 63 202 81 55 18 101 33 103 34 1 2 -7 36 -18
76 -34 121 -69 340 -81 507 -6 86 -12 157 -13 157 0 0 -144 -1 -319 -3z m285
-102 c4 -30 12 -107 18 -170 6 -63 25 -184 41 -268 17 -84 29 -158 26 -165 -3
-7 -31 -21 -63 -31 -33 -10 -106 -39 -163 -64 l-104 -46 -29 35 c-80 95 -185
308 -232 471 -24 84 -56 243 -56 281 0 16 18 17 278 15 l277 -3 7 -55z"/>
<path d="M750 1400 c0 -56 26 -303 40 -384 11 -60 60 -279 65 -284 1 -1 45 7
97 17 109 23 351 51 435 51 l58 0 -2 320 -2 321 -346 2 -345 2 0 -45z m645
-280 l0 -274 -173 -18 c-96 -9 -207 -24 -249 -32 -41 -9 -77 -16 -79 -16 -9 0
-27 60 -50 170 -25 121 -59 414 -50 437 5 11 60 13 303 11 l298 -3 0 -275z"/>
<path d="M1560 1445 c0 0 -1 -145 -3 -323 l-2 -322 56 0 c83 0 330 -29 438
-51 52 -11 95 -18 96 -17 5 5 54 224 65 284 14 81 40 328 40 384 l0 45 -345 0
c-190 0 -345 0 -345 0z m644 -60 c6 -17 -8 -184 -25 -305 -14 -97 -58 -288
-68 -295 -5 -2 -44 2 -87 11 -44 8 -155 23 -249 33 l-170 17 -3 264 c-1 146 0
270 3 277 3 10 71 13 299 13 253 0 295 -2 300 -15z"/>
<path d="M2360 1425 c0 -150 -43 -462 -86 -624 -13 -52 -23 -95 -22 -96 2 -1
48 -16 103 -34 55 -18 146 -55 202 -81 l101 -48 55 77 c151 210 255 478 272
700 4 42 8 86 11 98 l4 22 -320 3 c-314 3 -320 3 -320 -17z m595 -72 c-26
-185 -78 -360 -151 -505 -51 -101 -138 -236 -158 -244 -6 -2 -50 13 -96 34
-47 22 -118 50 -159 63 -40 13 -76 30 -79 37 -3 8 3 50 12 95 31 144 55 299
61 392 3 49 8 109 11 133 l5 42 280 0 280 0 -6 -47z"/>
<path d="M1215 679 c-81 -8 -316 -46 -322 -53 -7 -7 89 -213 134 -290 28 -48
83 -116 133 -168 69 -70 101 -94 160 -122 41 -19 85 -36 98 -38 l22 -3 3 343
2 342 -75 -1 c-41 -1 -111 -5 -155 -10z m183 -326 c2 -212 -1 -293 -9 -293 -6
0 -39 15 -72 32 -108 58 -225 194 -307 357 -41 81 -61 139 -52 145 17 10 192
37 277 43 50 3 92 7 95 10 2 2 18 3 35 1 l30 -3 3 -292z"/>
<path d="M1557 349 l3 -344 22 3 c13 2 57 19 98 38 59 28 91 52 160 122 50 52
105 120 133 168 46 78 141 284 134 291 -11 10 -318 53 -426 59 l-126 7 2 -344z
m321 274 c151 -20 168 -25 164 -49 -15 -82 -152 -305 -242 -392 -55 -54 -161
-122 -189 -122 -12 0 -16 571 -4 584 8 8 122 0 271 -21z"/>
<path d="M660 561 c-127 -45 -240 -93 -240 -103 0 -13 166 -150 251 -208 48
-32 124 -76 170 -98 80 -38 249 -102 271 -102 5 0 -18 30 -52 68 -109 118
-223 310 -261 440 -7 23 -17 42 -23 41 -6 0 -58 -17 -116 -38z m123 -73 c33
-82 95 -197 144 -267 24 -35 43 -67 41 -71 -4 -13 -130 44 -222 100 -99 60
-246 176 -246 195 0 7 32 25 73 41 39 15 86 33 102 40 17 7 43 13 58 13 25 1
31 -5 50 -51z"/>
<path d="M2201 558 c-39 -133 -159 -333 -269 -449 l-64 -68 99 33 c199 67 399
185 553 325 l65 59 -80 38 c-69 32 -266 104 -285 104 -4 0 -12 -19 -19 -42z
m177 -54 c98 -37 122 -49 122 -65 0 -15 -161 -138 -250 -191 -95 -56 -214
-111 -218 -99 -1 4 23 45 54 92 52 76 95 158 137 262 20 47 31 47 155 1z"/>
</g>
</svg>
