<?xml version="1.0" standalone="no"?>
<!DOCTYPE svg PUBLIC "-//W3C//DTD SVG 20010904//EN"
 "http://www.w3.org/TR/2001/REC-SVG-20010904/DTD/svg10.dtd">
<svg version="1.0" xmlns="http://www.w3.org/2000/svg"
 width="300.000000pt" height="300.000000pt" viewBox="0 0 300.000000 300.000000"
 preserveAspectRatio="xMidYMid meet">
<metadata>
Created by potrace 1.10, written by Peter Selinger 2001-2011
</metadata>
<g transform="translate(0.000000,300.000000) scale(0.100000,-0.100000)"
fill="#000000" stroke="none">
<path d="M1337 2955 c-325 -62 -601 -303 -705 -616 -68 -205 -63 -413 13 -615
34 -91 62 -138 160 -269 45 -60 100 -141 123 -180 41 -70 112 -241 112 -270 0
-13 53 -15 459 -15 l459 0 6 33 c21 105 138 324 246 457 73 90 152 245 182
355 30 114 30 327 -1 440 -73 271 -259 492 -516 611 -157 73 -373 100 -538 69z
m371 -55 c308 -74 544 -302 638 -616 36 -120 38 -316 5 -439 -30 -114 -97
-243 -194 -370 -96 -128 -146 -214 -196 -340 l-36 -90 -419 -3 c-268 -1 -423
1 -431 8 -6 5 -17 29 -24 52 -25 82 -114 239 -208 365 -162 218 -216 366 -216
588 0 77 6 144 17 188 86 356 382 627 740 677 86 12 227 3 324 -20z"/>
<path d="M1074 823 c3 -21 6 -53 6 -70 l0 -33 420 0 420 0 0 39 c0 21 3 53 6
70 l7 31 -433 0 -433 0 7 -37z m801 -33 l0 -25 -373 -3 c-325 -2 -373 0 -378
13 -4 8 -4 22 0 30 5 13 53 15 378 13 l373 -3 0 -25z"/>
<path d="M1080 470 c0 -107 2 -122 20 -140 11 -11 31 -20 45 -20 17 0 25 -5
25 -18 0 -34 51 -121 96 -162 72 -66 143 -94 239 -95 67 0 89 4 136 27 31 16
75 47 99 70 42 43 90 127 90 161 0 11 8 17 25 17 14 0 34 9 45 20 18 18 20 33
20 140 l0 120 -420 0 -420 0 0 -120z m794 64 c8 -22 7 -147 -2 -159 -4 -6 -19
-18 -34 -27 -15 -10 -41 -48 -62 -92 -58 -120 -148 -180 -271 -180 -127 0
-234 73 -289 198 -14 32 -36 62 -53 72 -40 26 -43 32 -43 106 0 108 -39 98
380 98 326 0 369 -2 374 -16z"/>
</g>
</svg>
